<?xml version="1.0" encoding="UTF-8"?>
<svg id="Camada_2" data-name="Camada 2" xmlns="http://www.w3.org/2000/svg" xmlns:xlink="http://www.w3.org/1999/xlink" viewBox="0 0 704.53 295.24">
  <defs>
    <style>
      .cls-1 {
        fill: #cecdcd;
      }

      .cls-1, .cls-2, .cls-3, .cls-4, .cls-5, .cls-6 {
        stroke-width: 0px;
      }

      .cls-2 {
        fill: #f5cd00;
      }

      .cls-3 {
        fill: #1e1f1f;
      }

      .cls-4 {
        fill: none;
      }

      .cls-7 {
        clip-path: url(#clippath-1);
      }

      .cls-5 {
        fill: #cccbcb;
      }

      .cls-8 {
        clip-path: url(#clippath);
      }

      .cls-6 {
        fill: #9abf49;
      }
    </style>
    <clipPath id="clippath">
      <rect class="cls-4" x="-232.95" y="-293.78" width="595.28" height="841.89"/>
    </clipPath>
    <clipPath id="clippath-1">
      <rect class="cls-4" x="-135.35" y="-247.85" width="595.28" height="841.89"/>
    </clipPath>
  </defs>
  <g>
    <path class="cls-6" d="m109.52,104.51s-.04-.09-.08-.18c-1.73-3.31-9.08-9.88-9.08-9.88-.58-.52-1.58-1.42-2.85-2.58-.05-.04-.1-.08-.15-.12-.75-.54-1.53-1.06-2.33-1.58-6.82-4.39-13.78-6.83-20.03-8.18-1.71-.39-3.51-.74-5.4-1.05-.86-.14-1.71-.26-2.54-.37-1.07-.14-2.14-.28-3.2-.42l-3.28-.3c-1.13-.06-2.26-.12-3.4-.18-.93-.03-1.87-.06-2.8-.09-.9-.01-1.79-.02-2.69-.03l-3.38.05-2.64.12c-.54.03-1.08.06-1.62.09-.6.04-1.21.08-1.81.13-.8.07-1.61.14-2.41.21-.87.09-1.74.17-2.61.26-.53.06-1.06.12-1.59.19-.69.09-1.37.17-2.06.26-.82.12-1.64.24-2.46.35-1.06.16-1.92.3-2.54.41-.09.01-.48.08-1.01.17-.63.11-1.17.2-1.58.28-.26.05-.64.12-1.1.2-.88.16-1.69.31-2.69.51-.4.08-.95.19-1.61.33-1.03.22-2.05.44-3.08.66-.76.17-1.51.34-2.27.51-.95.22-1.89.44-2.84.66-.82.2-1.64.41-2.46.61-.4.1-.79.2-1.19.3-.17.08-.69.13-.84.26-.2.14-.27.24-.4.38-.08.08-.18.19-.32.31l.21.16c.58.47,1.53,1.23,2.1,1.7.43.38.86.76,1.29,1.13.75.73,1.49,1.45,2.23,2.18.77.83,1.55,1.72,2.34,2.68.75.91,1.45,1.81,2.1,2.68.26.34.52.68.78,1.04.58.8,1.1,1.58,1.57,2.34.46.71.92,1.42,1.38,2.13.48.76,2.46,3.9,3.81,6.16.39.66.85,1.43.85,1.43.64,1.08,1.16,1.99,1.55,2.65.09.14.23.35.4.62.24.39.35.6.57.97.13.23.33.56.58.95.14.24.31.53.5.85.11.19.34.58.63,1.06.38.63.56.93.94,1.55.73,1.2.67,1.13,1.22,2.01.6.98,1.07,1.73,1.18,1.91.5.8.55.85,1.18,1.85.6.95.59.95.94,1.49.25.39.47.73,1.17,1.77.74,1.1,1.11,1.64,1.39,2.06.17.25.98,1.43,2.11,2.98.53.74,1.36,1.87,2.38,3.2,2.03,2.63,3.67,4.48,5.29,6.31.8.9,1.51,1.68,2.44,2.61.69.69,1.28,1.24,1.7,1.62,2.16,2.04,4.16,3.58,5.78,4.71,2.25,1.57,4.05,2.55,4.61,2.85,1.43.76,2.7,1.34,3.73,1.77,3.14,1.21,6.29,2.41,9.43,3.62,2.73.51,7.04,1.32,9.78,1.83,2.08,0,4.17.01,6.25.02.11,0,.22-.01.32-.04,5.82-1.34,11.63-2.67,17.45-4.01.85-.19,1.33-1.1,1.01-1.91-.39-1.01-.77-2.01-1.16-3.02h0c-.25-.6-.5-1.19-.75-1.79l-.43-.96-1.48-3.1c-.2-.4-.4-.79-.61-1.19-.19-.39-.38-.78-.57-1.17l-1.56-2.89c-1.56-2.66-2.96-4.9-4.1-6.64,0,0-3.23-4.95-5.26-7.41-.05-.06-.44-.53-.97-1.18-.26-.32-.41-.51-.54-.68-.56-.7-1.06-1.28-1.45-1.73-.99-1.14-1.58-1.83-2.33-2.56-.14-.14-.46-.45-.89-.9-.39-.41-.65-.71-.79-.87-.52-.58-.94-.99-1.75-1.78-1.06-1.03-1.93-1.79-2.78-2.54-.88-.77-1.74-1.53-2.92-2.48-.66-.53-1.41-1.1-1.96-1.53-.7-.54-1.04-.79-1.17-.89-.73-.54-1.29-.94-1.62-1.17-.86-.6-1.51-1.04-1.73-1.19-.16-.11-.52-.35-1-.66-.28-.18-.53-.35-.88-.56-.18-.11-.41-.25-.71-.43-.29-.17-.77-.45-1.4-.78-.16-.08-.42-.22-.77-.38-.4-.19-.48-.21-.95-.43-.26-.13-.31-.15-.58-.28-.3-.14-.35-.15-.56-.26-.14-.07-.14-.07-.57-.29-.36-.19-.38-.19-.58-.3-.26-.14-.39-.2-.55-.29-.06-.04-.26-.15-.52-.31-.2-.13-.35-.23-.41-.28-.12-.09-.22-.15-.4-.29-.03-.02-.1-.07-.19-.14-.17-.13-.12-.1-.2-.15-.12-.09-.18-.12-.17-.14,0-.01.04-.01.09,0,.15,0,.16-.02.31-.02.13,0,.22.02.31.03.42.07.44.05.74.11.1.02.38.08.89.24.33.11.73.25,1.27.49,1.04.45,1.86.92,2.37,1.22.08.04.17.1.55.31.61.35.92.53,1.04.6.37.21.66.35,1.12.59.34.18.63.32.81.41.51.25.55.26.97.47.44.21.76.38,1.29.66.47.24.82.43.93.49.8.43,1.41.77,1.6.88,0,0,1.03.58,2.01,1.18,1.24.76,4.23,2.82,8.06,5.81,1.13.91,2.29,1.89,3.47,2.93,1.21,1.07,2.34,2.12,3.41,3.16,1.44,1.52,2.89,3.08,4.34,4.69,2.55,2.83,4.95,5.62,7.22,8.37.15.23.31.46.46.68.15.18.28.34.39.47.1.12.18.2.33.37.17.19.28.32.43.44.08.07.16.12.16.12,0,0,.06.04.15.1,0,0,.02.01.03.02.01,0,.02.01.02.01,0,0,.01,0,.03.02.03.01.03.02.04.02,0,0,.02,0,.02,0,0,0,.01,0,.02.01.01,0,.03.01.04.02,0,0,.02,0,.02,0,.01,0,.03,0,.04.01.01,0,.02,0,.03,0,.02,0,.04.01.07.02.04.01.12.02.21.03.04,0,.09,0,.13,0,.01,0,.02,0,.03,0,.05,0,.08-.01.09,0-.08-.41-.16-.82-.24-1.24l-.14-.71-.21-1.35-.27-2.21s0-.06,0-.1c-.02-.32-.04-.82-.1-1.42-.04-.51-.09-.88-.1-1.01-.06-.56-.13-1.41-.14-3.66-.01-1.77-.02-2.66.02-3.42.05-1.03.15-1.86.4-3.64.46-3.2.77-4.91,1.3-8.3,0,0,.26-1.37.44-2.9.02-.21.07-.72.09-.98,0-.1.01-.2.01-.2,0-.08.01-.21.02-.36,0-.04,0-.1,0-.17,0-.18,0-.24,0-.26,0-.04,0-.1-.02-.18,0-.03-.01-.08-.03-.13,0-.04-.04-.15-.11-.32Z"/>
    <path class="cls-6" d="m179.25,82.93l-.74-2.55c-.38-1.16-.75-2.33-1.13-3.49-.29-.85-.58-1.7-.88-2.55l-1.19-3.18c-.33-.82-.67-1.64-1-2.46-.21-.5-.42-1-.63-1.5-.24-.56-.49-1.11-.73-1.67-.34-.74-.68-1.47-1.01-2.21-.37-.79-.75-1.58-1.12-2.38-.24-.48-.47-.96-.71-1.44-.31-.62-.63-1.24-.94-1.86-.39-.73-.77-1.47-1.16-2.2-.51-.95-.93-1.71-1.24-2.26-.04-.08-.24-.43-.5-.89-.31-.56-.58-1.03-.79-1.4-.13-.23-.33-.57-.56-.97-.45-.78-.86-1.49-1.39-2.37-.21-.35-.5-.84-.85-1.42-.55-.9-1.1-1.79-1.66-2.69-.41-.66-.83-1.31-1.24-1.97-.53-.82-1.05-1.64-1.58-2.46-.47-.71-.94-1.41-1.4-2.12-.23-.34-.45-.68-.68-1.02-.13-.14-.36-.61-.53-.71-.2-.14-.32-.17-.49-.26-.1-.05-.24-.1-.4-.2l-.08.25-.89,2.56-.63,1.6-1.29,2.84c-.52,1-1.1,2.04-1.73,3.11-.6,1.02-1.21,1.98-1.81,2.88-.23.36-.47.72-.72,1.09-.55.81-1.11,1.57-1.67,2.27-.51.67-1.03,1.34-1.54,2.01-.55.7-2.83,3.63-4.5,5.66-.49.59-1.05,1.28-1.05,1.28-.8.96-1.47,1.77-1.97,2.35-.1.13-.26.34-.45.58-.28.35-.45.53-.72.86-.17.2-.41.5-.7.87-.18.21-.39.47-.63.75-.14.17-.43.52-.78.95-.47.57-.68.84-1.14,1.41-.88,1.09-.83,1.01-1.48,1.82-.72.9-1.27,1.59-1.39,1.76-.58.74-.62.81-1.34,1.73-.69.88-.69.88-1.09,1.39-.28.37-.52.69-1.26,1.7-.78,1.06-1.17,1.6-1.46,2-.18.25-1.01,1.4-2.09,2.99-.51.75-1.3,1.91-2.2,3.32-1.79,2.8-2.97,4.97-4.14,7.1-.58,1.05-1.07,1.99-1.63,3.18-.42.88-.73,1.63-.95,2.14-1.19,2.72-1.96,5.13-2.47,7.04-.71,2.65-1.03,4.68-1.12,5.31-.24,1.6-.35,3-.41,4.11-.08,3.67-.16,7.33-.23,11,.44,2.73.87,5.39,1.31,8.13.8,2.26,1.6,4.52,2.4,6.77.03.08.07.17.11.25,4.17,7.15,5.99,10.09,6.61,10.9.07.09.44.57.87,1.26.49.78.78,1.42.94,1.78.28.65.46,1.04.56,1.62.08.4.02.36.13,1.19.03.2.1.79.26,1.54.12.57.22.99.25,1.11.27,1.08.59,3,.76,4.59.19,1.76.18,3.02.17,5.25,0,1.6-2.64,5.37-2.69,6.34,0,.03,2.6-2.36,2.57-2.34-4.88,3.03-2.98,5.7-.92,8.37,1.24,1.61,1.63,3.65,3.61,3.16.03,0,.05-.01.08-.02.56-.13.98-.6,1.07-1.17.55-3.45,1.15-4.71,1.3-8.7.07-2-.59-5.4-.65-6.43-.19-3.07-.24-2.12-.47-5.76-.05-.77.03-3.78-.41-5.54-.08-.3-.14-.55-.18-.71-.14-.58-.17-1.06-.17-1.39,0-.31.02-.54.14-.79.09-.2.22-.33.31-.42.1-.14.19-.27.29-.41.28-.33.7-.81,1.26-1.37.25-.25.38-.36.79-.76.48-.46.95-.93,1.43-1.39.62-.66,1.24-1.33,1.86-1.99.3-.31.6-.62.9-.93l2.19-2.44c1.98-2.36,3.6-4.44,4.86-6.1,0,0,3.57-4.71,5.18-7.45.04-.07.35-.59.79-1.31.22-.35.34-.55.45-.74.46-.77.84-1.43,1.13-1.95.74-1.31,1.18-2.11,1.62-3.06.08-.18.27-.59.55-1.14.26-.51.45-.85.55-1.04.37-.68.61-1.22,1.08-2.24.61-1.35,1.03-2.42,1.45-3.47.43-1.09.85-2.15,1.34-3.58.27-.8.56-1.7.77-2.36.27-.84.39-1.25.44-1.41.26-.87.44-1.53.55-1.92.28-1.01.47-1.78.53-2.03.05-.18.15-.61.28-1.16.08-.32.14-.62.23-1.02.04-.21.1-.47.17-.82.06-.33.17-.88.26-1.58.02-.18.06-.47.1-.85.04-.44.04-.53.09-1.05.03-.29.04-.34.06-.64.03-.33.03-.38.05-.61.02-.15.02-.16.08-.64.05-.41.05-.42.09-.65.04-.29.06-.43.09-.61.01-.07.05-.3.12-.59.05-.23.1-.41.12-.48.04-.14.07-.25.14-.48,0-.03.03-.12.07-.23.06-.21.05-.15.08-.23.04-.14.05-.21.08-.21.02,0,.02.04.04.08.04.14.07.14.12.29.04.12.06.21.07.3.07.42.1.43.15.74.01.1.06.38.07.92.01.34,0,.77-.03,1.36-.07,1.14-.24,2.07-.34,2.65-.02.09-.04.2-.11.62-.12.69-.19,1.04-.21,1.18-.07.42-.11.74-.17,1.25-.05.38-.09.7-.11.9-.06.57-.06.61-.11,1.07-.05.49-.1.84-.19,1.44-.07.52-.13.92-.15,1.05-.13.9-.25,1.59-.29,1.81,0,0-.2,1.17-.43,2.29-.29,1.43-1.22,4.94-2.73,9.56-.47,1.37-1,2.79-1.58,4.25-.59,1.5-1.2,2.92-1.81,4.28-.94,1.87-1.92,3.76-2.94,5.67-1.79,3.35-3.61,6.56-5.43,9.62-.16.22-.32.44-.49.66-.12.2-.22.38-.31.53-.08.13-.13.23-.24.44-.12.22-.2.37-.27.55-.04.1-.06.19-.06.19s-.02.07-.05.18c0,0,0,.02,0,.03,0,.02,0,.02,0,.02,0,.01,0,.01,0,.03,0,.03,0,.03,0,.05,0,.01,0,.02,0,.02,0,0,0,.02,0,.02,0,.01,0,.03,0,.04,0,0,0,.02,0,.02,0,.01,0,.03,0,.04v.03s0,.04,0,.07c0,.04.02.12.05.21.02.04.03.08.05.12,0,0,0,.02.01.03.02.05.04.07.03.08.2.24.49.58.89.96.98.93,1.96,1.47,3.18,2.04,1.91.89,3.5,1.64,5.87,2.16,2.13.47,3.33.73,4.96.52,3.56-.45,6.27-2.75,7.59-3.87.81-.69,1.78-1.58,1.78-1.58,1.12-1.02,1.19-1.15,2.26-2.12.89-.8,1.03-.89,1.48-1.36.48-.51.79-.91,1.33-1.61.53-.69.89-1.23,1.39-1.97.04-.07.79-1.16,1.21-1.83.53-.84,1.42-2.39,2.42-4.88.58-1.15,1.15-2.46,1.67-3.93.31-.87.57-1.71.78-2.51.24-.73.44-1.32.58-1.75.13-.36.23-.67.37-1.03.13-.34.23-.59.25-.66.35-.95.56-1.76.69-2.3.26-.92.5-1.86.72-2.82,1.82-7.91,1.77-15.3.93-21.66-.21-1.74-.49-3.56-.84-5.45-.16-.86-.33-1.7-.51-2.52-.23-1.07-.47-2.14-.7-3.22l-.79-3.05Z"/>
  </g>
  <g class="cls-8">
    <g class="cls-7">
      <path class="cls-1" d="m182.37,217.68c2.56,1.54,4.07,3.61,4.22,6.5.22,4.17-2.95,7.77-7.25,7.79-16.98.08-33.97.06-50.95,0-3.26-.01-5.93-2.16-6.89-5.1-1-3.08.01-6.29,2.65-8.36.35-.27.72-.51,1.07-.75-.11-.21-.14-.38-.25-.47-3.44-2.6-4.61-5.67-3.43-9.07,1.13-3.28,3.89-4.99,8.11-4.99,15.99,0,31.99,0,47.98,0,4.65,0,7.4,1.61,8.56,5,1.17,3.43.01,6.42-3.83,9.44"/>
      <path class="cls-3" d="m154.13,246.63c-6.09,0-12.18.01-18.27,0-4.02-.01-6.52-2.24-6.49-5.74.02-3.5,2.51-5.66,6.57-5.66,12.18,0,24.36,0,36.55,0,4.02,0,6.59,2.2,6.63,5.63.05,3.52-2.55,5.77-6.71,5.78-6.09.01-12.18,0-18.27,0"/>
      <path class="cls-3" d="m227.65,87.1c-5.72-39.98-44.74-68.24-84.47-61.15-6.88,1.23-13.35,3.33-19.35,6.17,1.35,2.31,2.55,4.69,3.68,7.1,2.8-1.31,5.73-2.44,8.76-3.35,42.92-12.94,85.05,19.46,84.09,64.59-.29,13.88-4.7,25.96-14.58,35.89-3.01,3.03-5.93,6.14-8.91,9.2-9.7,9.97-14.62,21.92-14.94,35.81-.08,3.46-1.21,6.57-3.2,9.37-1.3,1.82-4.02,2.65-6.09,1.98-.06-.02-.09-.04-.14-.07h-9.55c-.31.11-.71.15-1.25.13-4.34-.16-8.68-.09-13.02-.02-.46,0-.82-.02-1.12-.11h-9.96c-1.25.24-2.64.45-3.87,0h-.26v-.11c-.53-.24-1.02-.61-1.46-1.17-2.25-2.87-3.2-6.19-3.34-9.78-.06-1.56-.17-3.11-.32-4.65h-8.07c.2,1.74.33,3.5.35,5.31.06,4.9,1.61,9.45,4.51,13.45,2.49,3.44,5.82,5.21,10.15,5.16,6.63-.07,13.26-.02,19.89-.02s13.41-.05,20.12.02c3.7.04,6.68-1.34,9.02-4.12,3.55-4.22,5.6-9.15,5.7-14.63.21-12.36,4.63-22.82,13.31-31.59,3.75-3.79,7.46-7.63,11.02-11.6,6.99-7.79,11.34-16.9,13.07-27.23,1.36-8.17,1.44-16.36.26-24.58Z"/>
    </g>
  </g>
  <g>
    <path class="cls-5" d="m261.51,91.46c0-30.51,16.64-49.67,41.11-49.67,11.24,0,19.88,5.58,25.02,11.5l-3.94,4.5c-5.2-5.93-12.24-9.9-21.02-9.9-21.08,0-34.13,16.79-34.13,43.48s12.91,44.03,33.58,44.03c9.93,0,17.34-4.06,24.32-11.85l3.94,4.2c-7.37,8.56-16.09,13.75-28.61,13.75-23.71,0-40.27-19.48-40.27-50.05Z"/>
    <path class="cls-5" d="m349.31,130.36V34.73h6.45v96.5c0,3.12,1.29,4.58,3.04,4.58.61,0,1.2,0,2.63-.29l1.08,5.26c-1.31.38-2.51.73-4.64.73-5.63,0-8.55-3.47-8.55-11.15Z"/>
    <path class="cls-5" d="m378.02,104.84c0-22.86,14.86-36.94,30.57-36.94,16.61,0,26.83,11.83,26.83,32.44,0,1.75-.06,3.5-.37,5.26h-50.41c.23,17.69,10.6,30.34,26.4,30.34,7.59,0,13.58-2.51,18.83-6.22l2.66,4.9c-5.52,3.45-11.83,6.89-22.1,6.89-17.9,0-32.41-13.75-32.41-36.67Zm51.33-4.55c0-17.9-8.12-26.81-20.7-26.81-11.86,0-22.57,10.04-24.03,26.81h44.73Z"/>
    <path class="cls-5" d="m447.22,122.31c0-15.58,14.04-22.99,45.23-26.44.2-10.77-2.75-22.31-16.53-22.31-9.46,0-17.64,4.67-22.34,8.23l-2.98-4.79c4.96-3.5,14.69-9.11,26.07-9.11,16.61,0,22.22,12.06,22.22,27.07v44.79h-5.46l-.7-9.11h-.32c-7.15,5.78-15.68,10.86-24.88,10.86-11.1,0-20.32-6.04-20.32-19.2Zm45.23,2.32v-23.86c-28.79,3.33-38.63,10.02-38.63,21.2,0,10.06,6.8,13.93,14.86,13.93s15.1-3.88,23.77-11.27Z"/>
    <path class="cls-5" d="m523.93,69.65h5.46l.7,10.86h.32c7.15-7.12,14.45-12.61,24.12-12.61,14.48,0,21.2,8.79,21.2,26.89v44.97h-6.45v-44.12c0-14.86-4.7-21.93-15.97-21.93-8.35,0-14.4,4.41-22.92,13.17v52.88h-6.45v-70.11Z"/>
  </g>
  <g>
    <path class="cls-2" d="m267.46,221.69c0-23.3,16.18-37.67,33.05-37.67,19.39,0,29.61,14.02,29.61,34.05,0,3.21-.35,6.42-.73,8.18h-45.52c1.4,12.73,9.58,19.97,21.14,19.97,6.13,0,11.39-1.93,16.64-5.2l5.72,10.45c-6.83,4.61-15.47,7.77-24.58,7.77-19.8,0-35.33-13.9-35.33-37.55Zm48.12-6.89c0-11.04-4.91-17.75-14.72-17.75-8.35,0-15.71,6.25-17.17,17.75h31.89Z"/>
    <path class="cls-2" d="m345.78,185.78h13.78l1.29,9.69h.47c6.42-6.25,13.72-11.45,23.54-11.45,15.36,0,22.07,10.39,22.07,28.5v44.97h-16.82v-42.81c0-11.8-3.39-16.24-11.15-16.24-6.31,0-10.45,3.1-16.35,8.94v50.11h-16.82v-71.71Z"/>
    <path class="cls-2" d="m422.37,221.69c0-23.3,16.18-37.67,33.05-37.67,19.39,0,29.61,14.02,29.61,34.05,0,3.21-.35,6.42-.73,8.18h-45.52c1.4,12.73,9.58,19.97,21.14,19.97,6.13,0,11.39-1.93,16.64-5.2l5.72,10.45c-6.83,4.61-15.47,7.77-24.58,7.77-19.8,0-35.33-13.9-35.33-37.55Zm48.12-6.89c0-11.04-4.91-17.75-14.72-17.75-8.35,0-15.71,6.25-17.17,17.75h31.89Z"/>
    <path class="cls-2" d="m500.68,185.78h13.78l1.29,12.79h.47c5.11-9.34,12.7-14.54,20.38-14.54,3.65,0,5.96.47,8.12,1.46l-2.92,14.6c-2.51-.7-4.38-1.17-7.36-1.17-5.72,0-12.61,3.91-16.94,14.83v43.74h-16.82v-71.71Z"/>
    <path class="cls-2" d="m548.33,270.51c0-6.04,3.74-11.33,10.34-15.3v-.58c-3.68-2.39-6.48-6.19-6.48-11.97s3.79-10.45,7.94-13.37v-.58c-4.9-3.62-9.46-10.45-9.46-18.92,0-16.47,13.32-25.75,28.32-25.75,3.97,0,7.71.7,10.63,1.75h25.64v12.5h-13.08c2.34,2.69,4.09,7.12,4.09,12.03,0,15.94-12.09,24.47-27.27,24.47-3.04,0-6.48-.64-9.7-1.9-2.16,1.84-3.5,3.65-3.5,6.86,0,4.03,2.92,6.48,11.62,6.48h12.76c17.14,0,26.25,5.31,26.25,17.69,0,14.13-14.83,25.29-38.25,25.29-17.11,0-29.84-6.13-29.84-18.69Zm51.86-3.85c0-5.55-4.44-7.18-12.64-7.18h-9.84c-3.85,0-6.95-.29-9.69-.99-3.86,2.92-5.55,6.13-5.55,9.46,0,6.54,7.01,10.34,18.28,10.34s19.45-5.43,19.45-11.62Zm-8.76-56.88c0-8.99-5.43-14.13-12.44-14.13s-12.44,5.08-12.44,14.13,5.55,14.42,12.44,14.42,12.44-5.31,12.44-14.42Z"/>
    <path class="cls-2" d="m625.57,285.46l3.1-13.02c1.37.41,3.45.99,5.14.99,7.53,0,11.91-5.14,14.31-12.32l1.34-4.5-28.21-70.84h17.05l12.38,35.16c2.16,6.37,4.21,13.43,6.31,20.26h.58c1.81-6.66,3.62-13.72,5.49-20.26l10.69-35.16h16.24l-25.93,74.98c-5.96,16.15-13.49,26.16-29.14,26.16-3.91,0-6.72-.58-9.34-1.46Z"/>
  </g>
</svg>